<svg width="116" height="116" xmlns="http://www.w3.org/2000/svg" xmlns:xlink="http://www.w3.org/1999/xlink" overflow="hidden"><defs><clipPath id="clip0"><rect x="0" y="54" width="116" height="116"/></clipPath><clipPath id="clip1"><path d="M42.3403 54.4066 115.18 96.747 72.8397 169.587-9.91821e-05 127.246Z" fill-rule="evenodd" clip-rule="evenodd"/></clipPath><clipPath id="clip2"><path d="M42.3403 54.4066 115.18 96.747 72.8397 169.587-9.91821e-05 127.246Z" fill-rule="evenodd" clip-rule="evenodd"/></clipPath><clipPath id="clip3"><path d="M42.3403 54.4066 115.18 96.747 72.8397 169.587-9.91821e-05 127.246Z" fill-rule="evenodd" clip-rule="evenodd"/></clipPath></defs><g clip-path="url(#clip0)" transform="matrix(1 0 0 1 0 -54)"><g clip-path="url(#clip1)"><g clip-path="url(#clip2)"><g clip-path="url(#clip3)"><path d="M96.595 100.504C84.8692 85.1405 67.5464 75.0346 48.4018 72.3884 46.0774 72.0029 43.8806 73.5746 43.495 75.899 43.4775 76.0052 43.4638 76.1121 43.4543 76.2194 43.2842 77.9645 44.1518 79.6476 45.672 80.5214 46.1559 80.802 46.6865 80.993 47.2382 81.0856L47.265 81.0901 47.2931 81.0942C47.4315 81.1128 47.5697 81.1423 47.7057 81.1615L39.7696 142.829 89.3651 105.459C89.4474 105.563 89.5351 105.664 89.6157 105.77 89.9742 106.261 90.4417 106.662 90.9816 106.942 92.4916 107.818 94.3734 107.733 95.7986 106.725L95.8315 106.702 95.8634 106.677C97.7397 105.157 98.0643 102.42 96.595 100.504ZM44.5887 119.135C46.2587 117.737 48.7462 117.957 50.1447 119.627 51.543 121.297 51.3228 123.785 49.6527 125.183 48.3779 126.251 46.5706 126.404 45.1342 125.566 44.6485 125.283 44.2296 124.899 43.9062 124.439ZM42.0427 138.918 43.6213 126.653C46.1024 128.595 49.6877 128.157 51.6294 125.676 53.571 123.195 53.1336 119.61 50.6525 117.668 49.0074 116.381 46.79 116.096 44.8726 116.925L49.4414 81.4395C64.6794 84.091 78.4575 92.1294 88.2645 104.09ZM94.7821 105.294C93.9189 105.905 92.7781 105.956 91.8637 105.425 91.5384 105.268 91.2562 105.034 91.0414 104.744 80.4332 90.8977 64.8065 81.7778 47.5334 79.3519 47.1891 79.2945 46.858 79.1756 46.5558 79.0008 45.6297 78.4653 45.1014 77.4386 45.2041 76.3737 45.326 74.9918 46.5451 73.9705 47.927 74.0925 47.9977 74.0988 48.0682 74.108 48.1381 74.1202 66.8405 76.7001 83.7631 86.5734 95.2123 101.585 96.0881 102.736 95.8981 104.374 94.7821 105.294Z" fill="#ED7D31"/><path d="M58.9112 87.8943C56.1874 86.311 52.6959 87.2355 51.1126 89.9594 49.5293 92.6832 50.4538 96.1747 53.1776 97.758 55.9015 99.3413 59.393 98.4168 60.9763 95.693 62.5554 92.9686 61.6317 89.4801 58.9112 87.8943ZM54.0597 96.2405C52.174 95.1444 51.5339 92.7272 52.6301 90.8415 53.7262 88.9557 56.1434 88.3157 58.0291 89.4118 59.9149 90.5079 60.5549 92.9252 59.4588 94.8109 58.3611 96.6944 55.9458 97.334 54.0597 96.2405Z" fill="#ED7D31"/><path d="M64.3832 113.408C67.107 114.991 70.5985 114.066 72.1819 111.343 73.7652 108.619 72.8406 105.127 70.1168 103.544 67.393 101.961 63.9014 102.885 62.3181 105.609 60.739 108.333 61.6628 111.822 64.3832 113.408ZM69.2347 105.061C71.1204 106.158 71.7605 108.575 70.6644 110.461 69.5682 112.346 67.151 112.986 65.2653 111.89 63.3796 110.794 62.7395 108.377 63.8356 106.491 64.9333 104.608 67.3487 103.968 69.2347 105.061Z" fill="#ED7D31"/></g></g></g></g></svg>