<svg width="358" height="357" xmlns="http://www.w3.org/2000/svg" xmlns:xlink="http://www.w3.org/1999/xlink" overflow="hidden"><defs><clipPath id="clip0"><rect x="461" y="233" width="358" height="357"/></clipPath></defs><g clip-path="url(#clip0)" transform="translate(-461 -233)"><path d="M288.092 144.622C313.314 214.124 277.418 290.913 207.916 316.136 138.414 341.358 61.6245 305.462 36.4024 235.96 11.1801 166.458 47.076 89.6687 116.578 64.4467 148.661 52.8033 183.981 53.8542 215.316 67.3838L221.08 53.6244C145.622 21.1414 58.1189 55.9795 25.6358 131.437-6.84719 206.895 27.9907 294.398 103.449 326.881 178.906 359.364 266.409 324.526 298.892 249.068 313.916 214.168 315.015 174.841 301.962 139.156Z" fill="#ED7D31" transform="matrix(1.0028 0 0 1 461 233)"/><path d="M287.497 72.3297 287.497 72.3297 287.497 72.3297C274.456 58.9894 258.895 48.3716 241.719 41.0922L241.719 41.0922 187.871 170.207 318.027 118.628 318.027 118.628C311.037 101.315 300.656 85.5744 287.497 72.3297ZM243.95 79.2466C239.384 74.4624 239.561 66.8828 244.345 62.317 249.13 57.7511 256.709 57.9281 261.275 62.7123 265.789 67.4418 265.675 74.9172 261.019 79.5069 256.251 84.1486 248.623 84.0467 243.981 79.2785 243.971 79.2681 243.96 79.2573 243.95 79.2466ZM208.25 142.019 218.179 118.293C225.104 120.143 229.219 127.256 227.369 134.181 225.519 141.106 218.406 145.221 211.481 143.371 210.348 143.068 209.261 142.614 208.25 142.019ZM259.941 121.157C255.375 116.373 255.552 108.793 260.336 104.227 265.12 99.6614 272.7 99.8384 277.266 104.623 281.779 109.352 281.665 116.828 277.01 121.417 272.221 126.05 264.586 125.934 259.941 121.157Z" fill="#ED7D31" transform="matrix(1.0028 0 0 1 461 233)"/><path d="M343.352 111.116C344.168 109.178 344.168 106.993 343.352 105.055 335.322 85.0422 323.374 66.836 308.21 51.5047 293.167 36.176 275.265 23.946 255.515 15.5072 253.565 14.689 251.367 14.689 249.417 15.5072 247.493 16.2631 245.97 17.7856 245.214 19.7094 243.59 23.745 245.49 28.3388 249.491 30.0475 285.522 45.4636 314.014 74.4765 328.775 110.782 329.162 111.768 329.743 112.665 330.485 113.422L330.485 113.422C332.71 115.667 336.053 116.382 339.001 115.244 340.939 114.495 342.502 113.012 343.352 111.116Z" fill="#ED7D31" transform="matrix(1.0028 0 0 1 461 233)"/><path d="M274.555 151.018 162.249 195.643 209.961 81.2547 209.403 81.0316C194.855 74.6803 179.164 71.365 163.29 71.2884L162.249 71.2884C97.0147 71.487 44.0211 124.017 43.2491 189.247 42.692 254.956 95.4994 308.679 161.208 309.251L162.286 309.251C228.008 309.208 281.251 255.895 281.209 190.174 281.2 176.841 278.951 163.605 274.555 151.018ZM151.353 85.5312C157.515 79.3195 167.545 79.2785 173.757 85.4401 179.969 91.6017 180.009 101.632 173.848 107.844 167.687 114.056 157.656 114.096 151.444 107.935 151.414 107.905 151.383 107.874 151.353 107.844 145.192 101.748 145.138 91.8122 151.234 85.6506 151.273 85.6105 151.313 85.5707 151.353 85.5312ZM90.7747 211.597C85.4379 217.68 76.1808 218.284 70.0981 212.948 69.5083 212.431 68.9616 211.867 68.4622 211.262 62.5483 205.011 62.8223 195.149 69.0739 189.235 75.3251 183.321 85.1873 183.595 91.1008 189.847 96.9084 195.986 96.7634 205.635 90.7747 211.597ZM107.36 140.941C102.647 145.725 94.9475 145.782 90.1633 141.069 85.3795 136.355 85.3223 128.656 90.0358 123.872 94.7493 119.087 102.449 119.031 107.232 123.744 107.276 123.786 107.318 123.829 107.36 123.872 111.967 128.571 111.967 136.092 107.36 140.792ZM132.164 282.476C127.451 287.26 119.752 287.317 114.967 282.604 110.184 277.891 110.126 270.191 114.84 265.407 119.553 260.623 127.253 260.566 132.036 265.279 132.08 265.322 132.122 265.364 132.164 265.407 136.771 270.107 136.771 277.628 132.164 282.327ZM140.16 219.257C135.446 224.042 127.747 224.099 122.963 219.385 118.179 214.672 118.122 206.973 122.835 202.188 127.549 197.404 135.248 197.347 140.032 202.061 140.075 202.103 140.117 202.146 140.16 202.188 144.815 206.897 144.815 214.474 140.16 219.183ZM149.531 170.914C144.888 166.204 144.943 158.623 149.653 153.98 154.362 149.337 161.944 149.392 166.587 154.102 167.935 155.469 168.934 157.141 169.501 158.977L163.625 173.182C158.911 175.55 153.206 174.586 149.531 170.802ZM189.954 213.679C194.667 208.895 202.367 208.838 207.151 213.551 211.935 218.265 211.992 225.964 207.278 230.748 202.565 235.533 194.865 235.59 190.082 230.876 190.039 230.834 189.996 230.791 189.954 230.748 185.209 226.083 185.146 218.454 189.812 213.71 189.859 213.662 189.906 213.615 189.954 213.568ZM212.824 287.162C206.662 293.374 196.632 293.415 190.42 287.253 184.209 281.091 184.168 271.061 190.329 264.849 196.491 258.638 206.521 258.597 212.733 264.758 212.763 264.788 212.794 264.819 212.824 264.849 218.955 270.976 218.958 280.912 212.831 287.043 212.829 287.045 212.827 287.048 212.824 287.05ZM266.634 212.787C261.921 217.571 254.222 217.628 249.437 212.915 244.654 208.201 244.596 200.502 249.31 195.718 254.023 190.934 261.723 190.877 266.506 195.59 266.55 195.632 266.592 195.675 266.634 195.718 271.358 200.405 271.388 208.034 266.701 212.757 266.679 212.779 266.657 212.802 266.634 212.824Z" fill="#ED7D31" transform="matrix(1.0028 0 0 1 461 233)"/></g></svg>